<svg width="121" height="39" viewBox="0 0 121 39" fill="none" xmlns="http://www.w3.org/2000/svg">
<path d="M58.2236 10.3457L49.7949 21.2441H58.2236V22H47.1582V21.71L55.3408 11.1016H47.1582V10.3457H58.2236ZM60.0605 13.3428L61.3174 12.833H61.8359V22H60.0605V13.3428ZM59.9199 9.55469C59.9199 9.41406 59.9463 9.28223 59.999 9.15918C60.0518 9.03613 60.125 8.92773 60.2188 8.83398C60.3125 8.74023 60.4209 8.66699 60.5439 8.61426C60.667 8.56152 60.7988 8.53516 60.9395 8.53516C61.0801 8.53516 61.2119 8.56152 61.335 8.61426C61.458 8.66699 61.5664 8.74023 61.6602 8.83398C61.7539 8.92773 61.8271 9.03613 61.8799 9.15918C61.9326 9.28223 61.959 9.41406 61.959 9.55469C61.959 9.69531 61.9326 9.82715 61.8799 9.9502C61.8271 10.0732 61.7539 10.1816 61.6602 10.2754C61.5664 10.3691 61.458 10.4424 61.335 10.4951C61.2119 10.5479 61.0801 10.5742 60.9395 10.5742C60.7988 10.5742 60.667 10.5479 60.5439 10.4951C60.4209 10.4424 60.3125 10.3691 60.2188 10.2754C60.125 10.1816 60.0518 10.0732 59.999 9.9502C59.9463 9.82715 59.9199 9.69531 59.9199 9.55469ZM68.9287 22.1934C68.3193 22.1934 67.7451 22.0791 67.2061 21.8506C66.6729 21.6221 66.207 21.3115 65.8086 20.9189C65.4102 20.5264 65.0938 20.0664 64.8594 19.5391C64.6309 19.0059 64.5166 18.4404 64.5166 17.8428C64.5166 17.1221 64.6221 16.457 64.833 15.8477C65.0439 15.2324 65.3428 14.7021 65.7295 14.2568C66.1162 13.8115 66.5791 13.4629 67.1182 13.2109C67.6631 12.959 68.2695 12.833 68.9375 12.833C69.5234 12.833 70.0625 12.9385 70.5547 13.1494C71.0469 13.3545 71.4688 13.6328 71.8203 13.9844C72.1777 14.3301 72.4531 14.7314 72.6465 15.1885C72.8457 15.6455 72.9453 16.123 72.9453 16.6211H66.2393C66.2393 17.2246 66.3154 17.7842 66.4678 18.2998C66.626 18.8154 66.8457 19.2607 67.127 19.6357C67.4082 20.0107 67.7422 20.3037 68.1289 20.5146C68.5156 20.7256 68.9404 20.8311 69.4033 20.8311C69.79 20.8311 70.1621 20.7695 70.5195 20.6465C70.877 20.5176 71.1992 20.3506 71.4863 20.1455C71.7793 19.9404 72.0283 19.7061 72.2334 19.4424C72.4385 19.1787 72.582 18.9062 72.6641 18.625L73.1826 18.8535C73.0537 19.3164 72.8457 19.75 72.5586 20.1543C72.2715 20.5586 71.9346 20.9131 71.5479 21.2178C71.167 21.5166 70.751 21.7539 70.2998 21.9297C69.8486 22.1055 69.3916 22.1934 68.9287 22.1934ZM70.7041 15.9004C70.7041 15.5605 70.6426 15.2441 70.5195 14.9512C70.4023 14.6582 70.2383 14.4062 70.0273 14.1953C69.8164 13.9785 69.5703 13.8086 69.2891 13.6855C69.0078 13.5625 68.7061 13.501 68.3838 13.501C68.1143 13.501 67.8564 13.5625 67.6104 13.6855C67.3643 13.8027 67.1445 13.9697 66.9512 14.1865C66.7578 14.3975 66.5967 14.6494 66.4678 14.9424C66.3447 15.2354 66.2715 15.5518 66.248 15.8916L70.7041 15.9004ZM84.1953 13.4746V14.2305H82.4902C82.6602 14.4707 82.7979 14.7461 82.9033 15.0566C83.0146 15.3613 83.0703 15.6631 83.0703 15.9619C83.0703 16.4307 82.9678 16.8555 82.7627 17.2363C82.5576 17.6172 82.2705 17.9453 81.9014 18.2207C81.5381 18.4961 81.1016 18.71 80.5918 18.8623C80.082 19.0088 79.5195 19.082 78.9043 19.082C78.6758 19.082 78.4414 19.0645 78.2012 19.0293C77.9668 18.9941 77.7617 18.9473 77.5859 18.8887C77.416 19.0293 77.2725 19.1934 77.1553 19.3809C77.0381 19.5625 76.9795 19.7471 76.9795 19.9346C76.9795 20.1162 77.0762 20.2598 77.2695 20.3652C77.4688 20.4707 77.75 20.5322 78.1133 20.5498L81.4355 20.6992C81.9688 20.7227 82.4111 20.7871 82.7627 20.8926C83.1201 20.9922 83.4043 21.1299 83.6152 21.3057C83.8262 21.4756 83.9756 21.6777 84.0635 21.9121C84.1514 22.1465 84.1953 22.4102 84.1953 22.7031C84.1953 23.2246 84.0723 23.6963 83.8262 24.1182C83.5859 24.5459 83.2373 24.9092 82.7803 25.208C82.3232 25.5068 81.7637 25.7383 81.1016 25.9023C80.4453 26.0664 79.7012 26.1484 78.8691 26.1484C78.125 26.1484 77.4746 26.1045 76.918 26.0166C76.3613 25.9287 75.8984 25.8027 75.5293 25.6387C75.1602 25.4805 74.8848 25.2871 74.7031 25.0586C74.5215 24.8359 74.4307 24.584 74.4307 24.3027C74.4307 24.0566 74.4922 23.8193 74.6152 23.5908C74.7383 23.3682 74.8965 23.1514 75.0898 22.9404C75.2832 22.7354 75.4971 22.5361 75.7314 22.3428C75.9658 22.1494 76.1973 21.9648 76.4258 21.7891C76.2617 21.7363 76.1064 21.6748 75.96 21.6045C75.8193 21.5283 75.6963 21.4434 75.5908 21.3496C75.4854 21.2559 75.4033 21.1562 75.3447 21.0508C75.2861 20.9395 75.2568 20.8223 75.2568 20.6992C75.2568 20.5176 75.3037 20.3301 75.3975 20.1367C75.4971 19.9375 75.6289 19.75 75.793 19.5742C75.9629 19.3926 76.1562 19.2285 76.373 19.082C76.5957 18.9297 76.833 18.8096 77.085 18.7217C76.4814 18.4639 76.0068 18.1064 75.6611 17.6494C75.3213 17.1865 75.1514 16.6562 75.1514 16.0586C75.1514 15.6191 75.251 15.2031 75.4502 14.8105C75.6553 14.418 75.9365 14.0752 76.2939 13.7822C76.6514 13.4893 77.0674 13.2578 77.542 13.0879C78.0225 12.918 78.541 12.833 79.0977 12.833C79.3672 12.833 79.6309 12.8506 79.8887 12.8857C80.1523 12.9209 80.3955 12.9678 80.6182 13.0264C80.8467 13.085 81.0459 13.1523 81.2158 13.2285C81.3916 13.3047 81.5293 13.3867 81.6289 13.4746H84.1953ZM76.9795 21.9297C76.8447 22.0293 76.7275 22.1406 76.6279 22.2637C76.5283 22.3867 76.4434 22.5156 76.373 22.6504C76.3027 22.7852 76.25 22.9199 76.2148 23.0547C76.1797 23.1953 76.1621 23.3271 76.1621 23.4502C76.1621 23.6494 76.2324 23.8398 76.373 24.0215C76.5137 24.2031 76.7246 24.3643 77.0059 24.5049C77.2871 24.6455 77.6387 24.7568 78.0605 24.8389C78.4883 24.9209 78.9834 24.9619 79.5459 24.9619C80.1436 24.9619 80.6768 24.915 81.1455 24.8213C81.6201 24.7275 82.0215 24.6016 82.3496 24.4434C82.6836 24.291 82.9355 24.1182 83.1055 23.9248C83.2812 23.7373 83.3691 23.5469 83.3691 23.3535C83.3691 23.1543 83.3164 22.9814 83.2109 22.835C83.1113 22.6885 82.9648 22.5684 82.7715 22.4746C82.5781 22.3809 82.3438 22.3105 82.0684 22.2637C81.793 22.2168 81.4824 22.1934 81.1367 22.1934C80.7031 22.1934 80.2666 22.1816 79.8271 22.1582C79.3877 22.1406 78.9775 22.1172 78.5967 22.0879C78.2158 22.0645 77.8818 22.0352 77.5947 22C77.3076 21.9707 77.1025 21.9473 76.9795 21.9297ZM79.2031 18.6162C79.4551 18.6162 79.6982 18.5605 79.9326 18.4492C80.167 18.332 80.3721 18.1738 80.5479 17.9746C80.7295 17.7754 80.873 17.5439 80.9785 17.2803C81.084 17.0107 81.1367 16.7207 81.1367 16.4102C81.1367 15.9707 81.0752 15.5635 80.9521 15.1885C80.835 14.8076 80.6738 14.4795 80.4688 14.2041C80.2637 13.9229 80.0234 13.7031 79.748 13.5449C79.4727 13.3867 79.1826 13.3076 78.8779 13.3076C78.5791 13.3076 78.3184 13.3691 78.0957 13.4922C77.8789 13.6152 77.7002 13.7881 77.5596 14.0107C77.4189 14.2275 77.3135 14.4854 77.2432 14.7842C77.1787 15.0771 77.1465 15.3936 77.1465 15.7334C77.1465 16.1377 77.1963 16.5156 77.2959 16.8672C77.3955 17.2188 77.5361 17.5264 77.7178 17.79C77.8994 18.0479 78.1162 18.25 78.3682 18.3965C78.6201 18.543 78.8984 18.6162 79.2031 18.6162ZM87.6582 22H85.8652V8.92188L87.1396 8.41211H87.6582V22ZM94.6279 22.1934C94.0186 22.1934 93.4443 22.0791 92.9053 21.8506C92.3721 21.6221 91.9062 21.3115 91.5078 20.9189C91.1094 20.5264 90.793 20.0664 90.5586 19.5391C90.3301 19.0059 90.2158 18.4404 90.2158 17.8428C90.2158 17.1221 90.3213 16.457 90.5322 15.8477C90.7432 15.2324 91.042 14.7021 91.4287 14.2568C91.8154 13.8115 92.2783 13.4629 92.8174 13.2109C93.3623 12.959 93.9688 12.833 94.6367 12.833C95.2227 12.833 95.7617 12.9385 96.2539 13.1494C96.7461 13.3545 97.168 13.6328 97.5195 13.9844C97.877 14.3301 98.1523 14.7314 98.3457 15.1885C98.5449 15.6455 98.6445 16.123 98.6445 16.6211H91.9385C91.9385 17.2246 92.0146 17.7842 92.167 18.2998C92.3252 18.8154 92.5449 19.2607 92.8262 19.6357C93.1074 20.0107 93.4414 20.3037 93.8281 20.5146C94.2148 20.7256 94.6396 20.8311 95.1025 20.8311C95.4893 20.8311 95.8613 20.7695 96.2188 20.6465C96.5762 20.5176 96.8984 20.3506 97.1855 20.1455C97.4785 19.9404 97.7275 19.7061 97.9326 19.4424C98.1377 19.1787 98.2812 18.9062 98.3633 18.625L98.8818 18.8535C98.7529 19.3164 98.5449 19.75 98.2578 20.1543C97.9707 20.5586 97.6338 20.9131 97.2471 21.2178C96.8662 21.5166 96.4502 21.7539 95.999 21.9297C95.5479 22.1055 95.0908 22.1934 94.6279 22.1934ZM96.4033 15.9004C96.4033 15.5605 96.3418 15.2441 96.2188 14.9512C96.1016 14.6582 95.9375 14.4062 95.7266 14.1953C95.5156 13.9785 95.2695 13.8086 94.9883 13.6855C94.707 13.5625 94.4053 13.501 94.083 13.501C93.8135 13.501 93.5557 13.5625 93.3096 13.6855C93.0635 13.8027 92.8438 13.9697 92.6504 14.1865C92.457 14.3975 92.2959 14.6494 92.167 14.9424C92.0439 15.2354 91.9707 15.5518 91.9473 15.8916L96.4033 15.9004ZM102.696 12.833H102.969L103.206 14.6699C103.347 14.4004 103.522 14.1543 103.733 13.9316C103.944 13.709 104.176 13.5156 104.428 13.3516C104.686 13.1875 104.955 13.0615 105.236 12.9736C105.523 12.8799 105.813 12.833 106.106 12.833C106.37 12.833 106.628 12.8682 106.88 12.9385C107.138 13.0088 107.378 13.1201 107.601 13.2725L107.038 14.7754C106.921 14.6465 106.798 14.5439 106.669 14.4678C106.54 14.3857 106.408 14.3242 106.273 14.2832C106.139 14.2363 106.001 14.207 105.86 14.1953C105.72 14.1836 105.579 14.1777 105.438 14.1777C105.216 14.1777 104.996 14.21 104.779 14.2744C104.568 14.3389 104.366 14.4355 104.173 14.5645C103.979 14.6875 103.801 14.8486 103.637 15.0479C103.473 15.2412 103.329 15.4697 103.206 15.7334V22H101.422V13.3252L102.696 12.833Z" fill="#070025"/>
<path d="M58.2236 10.3457L49.7949 21.2441H58.2236V22H47.1582V21.71L55.3408 11.1016H47.1582V10.3457H58.2236ZM60.0605 13.3428L61.3174 12.833H61.8359V22H60.0605V13.3428ZM59.9199 9.55469C59.9199 9.41406 59.9463 9.28223 59.999 9.15918C60.0518 9.03613 60.125 8.92773 60.2188 8.83398C60.3125 8.74023 60.4209 8.66699 60.5439 8.61426C60.667 8.56152 60.7988 8.53516 60.9395 8.53516C61.0801 8.53516 61.2119 8.56152 61.335 8.61426C61.458 8.66699 61.5664 8.74023 61.6602 8.83398C61.7539 8.92773 61.8271 9.03613 61.8799 9.15918C61.9326 9.28223 61.959 9.41406 61.959 9.55469C61.959 9.69531 61.9326 9.82715 61.8799 9.9502C61.8271 10.0732 61.7539 10.1816 61.6602 10.2754C61.5664 10.3691 61.458 10.4424 61.335 10.4951C61.2119 10.5479 61.0801 10.5742 60.9395 10.5742C60.7988 10.5742 60.667 10.5479 60.5439 10.4951C60.4209 10.4424 60.3125 10.3691 60.2188 10.2754C60.125 10.1816 60.0518 10.0732 59.999 9.9502C59.9463 9.82715 59.9199 9.69531 59.9199 9.55469ZM68.9287 22.1934C68.3193 22.1934 67.7451 22.0791 67.2061 21.8506C66.6729 21.6221 66.207 21.3115 65.8086 20.9189C65.4102 20.5264 65.0938 20.0664 64.8594 19.5391C64.6309 19.0059 64.5166 18.4404 64.5166 17.8428C64.5166 17.1221 64.6221 16.457 64.833 15.8477C65.0439 15.2324 65.3428 14.7021 65.7295 14.2568C66.1162 13.8115 66.5791 13.4629 67.1182 13.2109C67.6631 12.959 68.2695 12.833 68.9375 12.833C69.5234 12.833 70.0625 12.9385 70.5547 13.1494C71.0469 13.3545 71.4688 13.6328 71.8203 13.9844C72.1777 14.3301 72.4531 14.7314 72.6465 15.1885C72.8457 15.6455 72.9453 16.123 72.9453 16.6211H66.2393C66.2393 17.2246 66.3154 17.7842 66.4678 18.2998C66.626 18.8154 66.8457 19.2607 67.127 19.6357C67.4082 20.0107 67.7422 20.3037 68.1289 20.5146C68.5156 20.7256 68.9404 20.8311 69.4033 20.8311C69.79 20.8311 70.1621 20.7695 70.5195 20.6465C70.877 20.5176 71.1992 20.3506 71.4863 20.1455C71.7793 19.9404 72.0283 19.7061 72.2334 19.4424C72.4385 19.1787 72.582 18.9062 72.6641 18.625L73.1826 18.8535C73.0537 19.3164 72.8457 19.75 72.5586 20.1543C72.2715 20.5586 71.9346 20.9131 71.5479 21.2178C71.167 21.5166 70.751 21.7539 70.2998 21.9297C69.8486 22.1055 69.3916 22.1934 68.9287 22.1934ZM70.7041 15.9004C70.7041 15.5605 70.6426 15.2441 70.5195 14.9512C70.4023 14.6582 70.2383 14.4062 70.0273 14.1953C69.8164 13.9785 69.5703 13.8086 69.2891 13.6855C69.0078 13.5625 68.7061 13.501 68.3838 13.501C68.1143 13.501 67.8564 13.5625 67.6104 13.6855C67.3643 13.8027 67.1445 13.9697 66.9512 14.1865C66.7578 14.3975 66.5967 14.6494 66.4678 14.9424C66.3447 15.2354 66.2715 15.5518 66.248 15.8916L70.7041 15.9004ZM84.1953 13.4746V14.2305H82.4902C82.6602 14.4707 82.7979 14.7461 82.9033 15.0566C83.0146 15.3613 83.0703 15.6631 83.0703 15.9619C83.0703 16.4307 82.9678 16.8555 82.7627 17.2363C82.5576 17.6172 82.2705 17.9453 81.9014 18.2207C81.5381 18.4961 81.1016 18.71 80.5918 18.8623C80.082 19.0088 79.5195 19.082 78.9043 19.082C78.6758 19.082 78.4414 19.0645 78.2012 19.0293C77.9668 18.9941 77.7617 18.9473 77.5859 18.8887C77.416 19.0293 77.2725 19.1934 77.1553 19.3809C77.0381 19.5625 76.9795 19.7471 76.9795 19.9346C76.9795 20.1162 77.0762 20.2598 77.2695 20.3652C77.4688 20.4707 77.75 20.5322 78.1133 20.5498L81.4355 20.6992C81.9688 20.7227 82.4111 20.7871 82.7627 20.8926C83.1201 20.9922 83.4043 21.1299 83.6152 21.3057C83.8262 21.4756 83.9756 21.6777 84.0635 21.9121C84.1514 22.1465 84.1953 22.4102 84.1953 22.7031C84.1953 23.2246 84.0723 23.6963 83.8262 24.1182C83.5859 24.5459 83.2373 24.9092 82.7803 25.208C82.3232 25.5068 81.7637 25.7383 81.1016 25.9023C80.4453 26.0664 79.7012 26.1484 78.8691 26.1484C78.125 26.1484 77.4746 26.1045 76.918 26.0166C76.3613 25.9287 75.8984 25.8027 75.5293 25.6387C75.1602 25.4805 74.8848 25.2871 74.7031 25.0586C74.5215 24.8359 74.4307 24.584 74.4307 24.3027C74.4307 24.0566 74.4922 23.8193 74.6152 23.5908C74.7383 23.3682 74.8965 23.1514 75.0898 22.9404C75.2832 22.7354 75.4971 22.5361 75.7314 22.3428C75.9658 22.1494 76.1973 21.9648 76.4258 21.7891C76.2617 21.7363 76.1064 21.6748 75.96 21.6045C75.8193 21.5283 75.6963 21.4434 75.5908 21.3496C75.4854 21.2559 75.4033 21.1562 75.3447 21.0508C75.2861 20.9395 75.2568 20.8223 75.2568 20.6992C75.2568 20.5176 75.3037 20.3301 75.3975 20.1367C75.4971 19.9375 75.6289 19.75 75.793 19.5742C75.9629 19.3926 76.1562 19.2285 76.373 19.082C76.5957 18.9297 76.833 18.8096 77.085 18.7217C76.4814 18.4639 76.0068 18.1064 75.6611 17.6494C75.3213 17.1865 75.1514 16.6562 75.1514 16.0586C75.1514 15.6191 75.251 15.2031 75.4502 14.8105C75.6553 14.418 75.9365 14.0752 76.2939 13.7822C76.6514 13.4893 77.0674 13.2578 77.542 13.0879C78.0225 12.918 78.541 12.833 79.0977 12.833C79.3672 12.833 79.6309 12.8506 79.8887 12.8857C80.1523 12.9209 80.3955 12.9678 80.6182 13.0264C80.8467 13.085 81.0459 13.1523 81.2158 13.2285C81.3916 13.3047 81.5293 13.3867 81.6289 13.4746H84.1953ZM76.9795 21.9297C76.8447 22.0293 76.7275 22.1406 76.6279 22.2637C76.5283 22.3867 76.4434 22.5156 76.373 22.6504C76.3027 22.7852 76.25 22.9199 76.2148 23.0547C76.1797 23.1953 76.1621 23.3271 76.1621 23.4502C76.1621 23.6494 76.2324 23.8398 76.373 24.0215C76.5137 24.2031 76.7246 24.3643 77.0059 24.5049C77.2871 24.6455 77.6387 24.7568 78.0605 24.8389C78.4883 24.9209 78.9834 24.9619 79.5459 24.9619C80.1436 24.9619 80.6768 24.915 81.1455 24.8213C81.6201 24.7275 82.0215 24.6016 82.3496 24.4434C82.6836 24.291 82.9355 24.1182 83.1055 23.9248C83.2812 23.7373 83.3691 23.5469 83.3691 23.3535C83.3691 23.1543 83.3164 22.9814 83.2109 22.835C83.1113 22.6885 82.9648 22.5684 82.7715 22.4746C82.5781 22.3809 82.3438 22.3105 82.0684 22.2637C81.793 22.2168 81.4824 22.1934 81.1367 22.1934C80.7031 22.1934 80.2666 22.1816 79.8271 22.1582C79.3877 22.1406 78.9775 22.1172 78.5967 22.0879C78.2158 22.0645 77.8818 22.0352 77.5947 22C77.3076 21.9707 77.1025 21.9473 76.9795 21.9297ZM79.2031 18.6162C79.4551 18.6162 79.6982 18.5605 79.9326 18.4492C80.167 18.332 80.3721 18.1738 80.5479 17.9746C80.7295 17.7754 80.873 17.5439 80.9785 17.2803C81.084 17.0107 81.1367 16.7207 81.1367 16.4102C81.1367 15.9707 81.0752 15.5635 80.9521 15.1885C80.835 14.8076 80.6738 14.4795 80.4688 14.2041C80.2637 13.9229 80.0234 13.7031 79.748 13.5449C79.4727 13.3867 79.1826 13.3076 78.8779 13.3076C78.5791 13.3076 78.3184 13.3691 78.0957 13.4922C77.8789 13.6152 77.7002 13.7881 77.5596 14.0107C77.4189 14.2275 77.3135 14.4854 77.2432 14.7842C77.1787 15.0771 77.1465 15.3936 77.1465 15.7334C77.1465 16.1377 77.1963 16.5156 77.2959 16.8672C77.3955 17.2188 77.5361 17.5264 77.7178 17.79C77.8994 18.0479 78.1162 18.25 78.3682 18.3965C78.6201 18.543 78.8984 18.6162 79.2031 18.6162ZM87.6582 22H85.8652V8.92188L87.1396 8.41211H87.6582V22ZM94.6279 22.1934C94.0186 22.1934 93.4443 22.0791 92.9053 21.8506C92.3721 21.6221 91.9062 21.3115 91.5078 20.9189C91.1094 20.5264 90.793 20.0664 90.5586 19.5391C90.3301 19.0059 90.2158 18.4404 90.2158 17.8428C90.2158 17.1221 90.3213 16.457 90.5322 15.8477C90.7432 15.2324 91.042 14.7021 91.4287 14.2568C91.8154 13.8115 92.2783 13.4629 92.8174 13.2109C93.3623 12.959 93.9688 12.833 94.6367 12.833C95.2227 12.833 95.7617 12.9385 96.2539 13.1494C96.7461 13.3545 97.168 13.6328 97.5195 13.9844C97.877 14.3301 98.1523 14.7314 98.3457 15.1885C98.5449 15.6455 98.6445 16.123 98.6445 16.6211H91.9385C91.9385 17.2246 92.0146 17.7842 92.167 18.2998C92.3252 18.8154 92.5449 19.2607 92.8262 19.6357C93.1074 20.0107 93.4414 20.3037 93.8281 20.5146C94.2148 20.7256 94.6396 20.8311 95.1025 20.8311C95.4893 20.8311 95.8613 20.7695 96.2188 20.6465C96.5762 20.5176 96.8984 20.3506 97.1855 20.1455C97.4785 19.9404 97.7275 19.7061 97.9326 19.4424C98.1377 19.1787 98.2812 18.9062 98.3633 18.625L98.8818 18.8535C98.7529 19.3164 98.5449 19.75 98.2578 20.1543C97.9707 20.5586 97.6338 20.9131 97.2471 21.2178C96.8662 21.5166 96.4502 21.7539 95.999 21.9297C95.5479 22.1055 95.0908 22.1934 94.6279 22.1934ZM96.4033 15.9004C96.4033 15.5605 96.3418 15.2441 96.2188 14.9512C96.1016 14.6582 95.9375 14.4062 95.7266 14.1953C95.5156 13.9785 95.2695 13.8086 94.9883 13.6855C94.707 13.5625 94.4053 13.501 94.083 13.501C93.8135 13.501 93.5557 13.5625 93.3096 13.6855C93.0635 13.8027 92.8438 13.9697 92.6504 14.1865C92.457 14.3975 92.2959 14.6494 92.167 14.9424C92.0439 15.2354 91.9707 15.5518 91.9473 15.8916L96.4033 15.9004ZM102.696 12.833H102.969L103.206 14.6699C103.347 14.4004 103.522 14.1543 103.733 13.9316C103.944 13.709 104.176 13.5156 104.428 13.3516C104.686 13.1875 104.955 13.0615 105.236 12.9736C105.523 12.8799 105.813 12.833 106.106 12.833C106.37 12.833 106.628 12.8682 106.88 12.9385C107.138 13.0088 107.378 13.1201 107.601 13.2725L107.038 14.7754C106.921 14.6465 106.798 14.5439 106.669 14.4678C106.54 14.3857 106.408 14.3242 106.273 14.2832C106.139 14.2363 106.001 14.207 105.86 14.1953C105.72 14.1836 105.579 14.1777 105.438 14.1777C105.216 14.1777 104.996 14.21 104.779 14.2744C104.568 14.3389 104.366 14.4355 104.173 14.5645C103.979 14.6875 103.801 14.8486 103.637 15.0479C103.473 15.2412 103.329 15.4697 103.206 15.7334V22H101.422V13.3252L102.696 12.833Z" fill="url(#paint0_linear)"/>
<path d="M10.7121 17.3438C11.097 16.6771 12.0593 16.6771 12.4442 17.3438L20.7391 31.7109C21.124 32.3776 20.6428 33.2109 19.873 33.2109H3.28323C2.51343 33.2109 2.0323 32.3776 2.4172 31.7109L10.7121 17.3438Z" fill="url(#paint1_linear)"/>
<path d="M12.4356 32.0865C12.0472 32.7338 11.109 32.7338 10.7206 32.0865L7.00245 25.8895C6.60253 25.223 7.08264 24.375 7.85994 24.375L15.2963 24.375C16.0736 24.375 16.5537 25.223 16.1538 25.8895L12.4356 32.0865Z" fill="#070025"/>
<path d="M30.2121 17.3438C30.597 16.6771 31.5593 16.6771 31.9442 17.3438L40.2391 31.7109C40.624 32.3776 40.1428 33.2109 39.373 33.2109H22.7832C22.0134 33.2109 21.5323 32.3776 21.9172 31.7109L30.2121 17.3438Z" fill="url(#paint2_linear)"/>
<path d="M31.9356 32.0865C31.5472 32.7338 30.609 32.7338 30.2206 32.0865L26.5024 25.8895C26.1025 25.223 26.5826 24.375 27.3599 24.375L34.7963 24.375C35.5736 24.375 36.0537 25.223 35.6538 25.8895L31.9356 32.0865Z" fill="#070025"/>
<path d="M22.1941 28.9687C21.8092 29.6354 20.847 29.6354 20.4621 28.9687L14.2781 18.2578C13.8932 17.5911 14.3744 16.7578 15.1442 16.7578L27.5121 16.7578C28.2819 16.7578 28.763 17.5911 28.3781 18.2578L22.1941 28.9687Z" fill="url(#paint3_linear)"/>
<path d="M22.1941 28.9687C21.8092 29.6354 20.847 29.6354 20.4621 28.9687L14.2781 18.2578C13.8932 17.5911 14.3744 16.7578 15.1442 16.7578L27.5121 16.7578C28.2819 16.7578 28.763 17.5911 28.3781 18.2578L22.1941 28.9687Z" fill="url(#paint4_linear)"/>
<path d="M20.4706 17.9464C20.859 17.2991 21.7972 17.2991 22.1856 17.9464L24.7492 22.219C25.1491 22.8856 24.669 23.7335 23.8917 23.7335L18.7646 23.7335C17.9873 23.7335 17.5071 22.8856 17.9071 22.219L20.4706 17.9464Z" fill="#070025"/>
<path d="M20.3813 1.44747C20.7688 0.795048 21.7133 0.795046 22.1008 1.44746L29.7676 14.3548C30.1635 15.0214 29.6831 15.8655 28.9078 15.8655L13.5743 15.8655C12.799 15.8655 12.3186 15.0214 12.7146 14.3548L20.3813 1.44747Z" fill="url(#paint5_linear)"/>
<path d="M22.092 14.7653C21.7013 15.3983 20.7809 15.3983 20.3901 14.7653L17.0281 9.31882C16.6169 8.65259 17.0961 7.79356 17.8791 7.79356L24.6031 7.79356C25.386 7.79356 25.8653 8.6526 25.454 9.31883L22.092 14.7653Z" fill="#070025"/>
<defs>
<linearGradient id="paint0_linear" x1="84" y1="5" x2="84" y2="35" gradientUnits="userSpaceOnUse">
<stop stop-color="#E9E9E9"/>
<stop offset="1" stop-color="white" stop-opacity="0"/>
</linearGradient>
<linearGradient id="paint1_linear" x1="11.5781" y1="15.8437" x2="11.5781" y2="39" gradientUnits="userSpaceOnUse">
<stop stop-color="#E9E9E9"/>
<stop offset="1" stop-color="white" stop-opacity="0"/>
</linearGradient>
<linearGradient id="paint2_linear" x1="31.0781" y1="15.8437" x2="31.0781" y2="39" gradientUnits="userSpaceOnUse">
<stop stop-color="#E9E9E9"/>
<stop offset="1" stop-color="white" stop-opacity="0"/>
</linearGradient>
<linearGradient id="paint3_linear" x1="21.3281" y1="30.4687" x2="21.3281" y2="12.1875" gradientUnits="userSpaceOnUse">
<stop stop-color="#E9E9E9"/>
<stop offset="1" stop-color="white" stop-opacity="0"/>
</linearGradient>
<linearGradient id="paint4_linear" x1="21.3281" y1="30.4687" x2="21.3281" y2="12.1875" gradientUnits="userSpaceOnUse">
<stop stop-color="#E9E9E9"/>
<stop offset="1" stop-color="white" stop-opacity="0"/>
</linearGradient>
<linearGradient id="paint5_linear" x1="21.2411" y1="0" x2="21.2411" y2="21.154" gradientUnits="userSpaceOnUse">
<stop stop-color="#E9E9E9"/>
<stop offset="1" stop-color="white" stop-opacity="0"/>
</linearGradient>
</defs>
</svg>
