<svg width="264" height="198" viewBox="0 0 264 198" fill="none" xmlns="http://www.w3.org/2000/svg">
<path d="M144.269 19.5228H51.7308V128.132H144.269V19.5228Z" fill="#E6E6E6"/>
<path d="M217.859 26.2482H155.648V84.183H217.859V26.2482Z" fill="#E6E6E6"/>
<path d="M228.928 93.8982H184.582V116.16H228.928V93.8982Z" fill="#E6E6E6"/>
<path opacity="0.08" d="M129.558 78.0714C129.558 78.0714 124.806 76.8372 123.618 80.2032C122.43 83.5692 111.401 79.1868 110.075 89.1792C109.336 94.7496 98.7558 104.782 84.9948 107.844C71.2338 110.906 70.3098 128.139 70.3098 128.139H107.712L132.535 91.74L129.558 78.0714Z" fill="black"/>
<path opacity="0.45" d="M137.095 184.516C177.982 184.516 211.127 177.055 211.127 167.851C211.127 158.647 177.982 151.186 137.095 151.186C96.2083 151.186 63.063 158.647 63.063 167.851C63.063 177.055 96.2083 184.516 137.095 184.516Z" fill="#E6E6E6"/>
<path d="M125.789 93.06C125.789 93.06 93.4032 89.628 94.6242 106.762C95.8452 123.895 114.002 160.38 114.002 160.38H153.78C153.78 160.38 183.968 114.081 169.283 99.1914C154.598 84.3018 151.239 97.086 125.789 93.06Z" fill="#8E8E84"/>
<path d="M113.942 165.95L138.151 172.484L159.628 161.581L162.888 155.773H141.24H106.801L113.942 165.95Z" fill="#24285B"/>
<path d="M110.167 111.613C113.197 101.468 107.468 90.387 96.6306 98.505C89.199 104.069 80.388 121.816 79.9326 138.23C78.8766 175.976 125.176 135.373 130.931 113.758L125.235 110.392C125.235 110.392 115.632 128.495 105.171 132.416C97.6206 135.247 105.686 126.601 110.167 111.613Z" fill="#8E8E84"/>
<path opacity="0.46" d="M110.167 111.613C113.197 101.468 107.468 90.387 96.6306 98.505C89.199 104.069 80.388 121.816 79.9326 138.23C78.8766 175.976 125.176 135.373 130.931 113.758L125.235 110.392C125.235 110.392 115.632 128.495 105.171 132.416C97.6206 135.247 105.686 126.601 110.167 111.613Z" fill="white"/>
<path d="M125.789 93.06C125.789 93.06 120.806 100.901 125.69 103.706C130.574 106.511 132.139 103.31 132.139 103.31C132.139 103.31 135.775 107.6 139.029 104.273C142.283 100.947 141.821 94.3206 138.508 91.2648C135.194 88.209 125.789 93.06 125.789 93.06Z" fill="white"/>
<path d="M126.925 93.2976C127.16 94.7485 127.312 96.2117 127.38 97.68C127.446 99.66 128.086 102.663 131.254 103.244C136.132 104.148 137.425 96.4392 137.425 96.4392C137.425 96.4392 140.494 89.1792 135.214 88.2222C130.436 87.2982 125.954 86.6646 126.925 93.2976Z" fill="#F4A28C"/>
<path opacity="0.08" d="M145.721 104.174C145.721 104.174 142.699 110.524 150.341 123.545C154.717 131.003 141.233 143.444 141.233 143.444L107.686 146.804L114.002 160.38H153.78C153.78 160.38 171.257 131.947 172.603 117.322C173.95 102.696 145.721 104.174 145.721 104.174Z" fill="black"/>
<path d="M137.095 96.723C137.095 96.723 137.372 94.38 139.412 94.479C141.451 94.578 140.653 98.9538 137.095 96.723Z" fill="#F4A28C"/>
<path d="M128.099 95.4162C128.099 95.4162 128.812 93.1722 126.918 92.4132C125.024 91.6542 123.935 95.9772 128.099 95.4162Z" fill="#F4A28C"/>
<path d="M195.492 111.078C198.835 111.078 201.544 108.368 201.544 105.026C201.544 101.683 198.835 98.9736 195.492 98.9736C192.149 98.9736 189.44 101.683 189.44 105.026C189.44 108.368 192.149 111.078 195.492 111.078Z" fill="#C9C9C9"/>
<path d="M115.52 153.707L112.715 128.139H155.648L151.364 155.014L151.978 158.459L115.064 158.75L115.52 153.707Z" fill="#FFD200"/>
<path opacity="0.08" d="M191.723 105.963C191.723 105.963 203.28 107.336 205.583 116.16H197.756L191.723 105.963Z" fill="black"/>
<path d="M132.799 165.95C132.799 165.95 140.95 168.802 138.151 172.484C135.353 176.167 130.931 170.049 130.931 170.049L132.799 165.95Z" fill="#8E8E84"/>
<path opacity="0.08" d="M155.648 128.139L147.14 139.359C142.173 145.917 135.463 150.948 127.776 153.879L115.064 158.73L149.107 158.459H151.978L151.364 155.014L155.648 128.139Z" fill="black"/>
<path d="M126.925 93.2976C126.925 93.2976 119.005 92.1624 122.555 86.3544C126.106 80.5464 126.865 84.8958 128.535 80.4144C130.205 75.933 131.71 75.042 134.152 76.9626C136.594 78.8832 134.231 82.9026 137.927 81.7872C141.623 80.6718 144.157 79.596 144.857 82.6584C145.556 85.7208 144.857 87.1926 142.474 88.242C140.092 89.2914 143.834 93.4164 137.854 95.0994C131.875 96.7824 128.753 90.2418 128.753 90.2418L126.925 93.2976Z" fill="#24285B"/>
<path d="M133.049 164.531C133.049 164.531 100.122 147.721 97.317 156.664C94.512 165.607 117.203 170.801 131.848 171.343L133.049 164.531Z" fill="#24285B"/>
<path d="M134.607 145.583C136.637 145.583 138.283 143.937 138.283 141.907C138.283 139.876 136.637 138.23 134.607 138.23C132.577 138.23 130.931 139.876 130.931 141.907C130.931 143.937 132.577 145.583 134.607 145.583Z" fill="white"/>
<path d="M141.055 165.845C141.055 165.845 167.317 139.821 172.735 147.49C178.154 155.159 158.083 167.006 144.296 171.97L141.055 165.845Z" fill="#24285B"/>
<path d="M142.085 167.812C142.085 167.812 134.303 174.742 138.785 176.781C143.266 178.82 144.25 171.97 144.25 171.97L142.085 167.812Z" fill="#8E8E84"/>
<path d="M145.721 104.174C145.43 101.25 146.307 98.328 148.162 96.0477C150.017 93.7675 152.698 92.3138 155.621 92.004C161.561 91.344 169.363 91.7598 176.299 96.1026C189.763 104.544 204.679 111.283 200.977 126.568C197.274 141.854 170.617 148.289 170.617 148.289L167.053 142.481C167.053 142.481 190.601 134.561 186.318 122.08C182.437 110.88 148.256 129.604 145.721 104.174Z" fill="#8E8E84"/>
<path opacity="0.46" d="M145.721 104.174C145.43 101.25 146.307 98.328 148.162 96.0477C150.017 93.7675 152.698 92.3138 155.621 92.004C161.561 91.344 169.363 91.7598 176.299 96.1026C189.763 104.544 204.679 111.283 200.977 126.568C197.274 141.854 170.617 148.289 170.617 148.289L167.053 142.481C167.053 142.481 190.601 134.561 186.318 122.08C182.437 110.88 148.256 129.604 145.721 104.174Z" fill="white"/>
<path d="M167.64 143.444C167.64 143.444 160.208 148.467 162.908 149.853C165.607 151.239 170.168 147.556 170.168 147.556L167.64 143.444Z" fill="#F4A28C"/>
<path d="M126.232 110.979C126.232 110.979 128.872 104.458 132.535 104.986C136.198 105.514 130.495 113.5 130.495 113.5L126.232 110.979Z" fill="#F4A28C"/>
<path d="M88.9548 32.4786H62.0994V69.2934H88.9548V32.4786Z" fill="#C9C9C9"/>
<path d="M183.388 33.3366H162.617V52.5492H183.388V33.3366Z" fill="#C9C9C9"/>
<path opacity="0.44" d="M183.388 57.915H162.617V77.1276H183.388V57.915Z" fill="#C9C9C9"/>
<path opacity="0.44" d="M210.962 57.915H190.192V77.1276H210.962V57.915Z" fill="#C9C9C9"/>
<path opacity="0.63" d="M164.168 48.9324L168.227 42.6624L173.006 48.2526L177.566 40.227L181.837 49.0512V51.2688H164.168V48.9324Z" fill="white"/>
<path d="M172.841 41.5404C173.985 41.5404 174.913 40.6126 174.913 39.468C174.913 38.3234 173.985 37.3956 172.841 37.3956C171.696 37.3956 170.768 38.3234 170.768 39.468C170.768 40.6126 171.696 41.5404 172.841 41.5404Z" fill="white"/>
<path d="M211.127 33.3366H190.357V52.5492H211.127V33.3366Z" fill="#C9C9C9"/>
<path opacity="0.63" d="M191.908 48.9324L195.967 42.6624L200.739 48.2526L205.306 40.227L209.576 49.0512V51.2688H191.908V48.9324Z" fill="white"/>
<path d="M200.574 41.5404C201.719 41.5404 202.646 40.6126 202.646 39.468C202.646 38.3234 201.719 37.3956 200.574 37.3956C199.429 37.3956 198.502 38.3234 198.502 39.468C198.502 40.6126 199.429 41.5404 200.574 41.5404Z" fill="white"/>
<path d="M75.8802 82.401H35.8248V105.389H75.8802V82.401Z" fill="#FFD200"/>
<path d="M50.4702 99.5544C50.2634 99.5584 50.062 99.4882 49.9026 99.3564L43.9626 94.6572C43.8543 94.5725 43.7665 94.4644 43.7059 94.3409C43.6454 94.2175 43.6135 94.0819 43.6128 93.9444C43.6132 93.8066 43.6441 93.6705 43.7035 93.5461C43.7628 93.4217 43.8491 93.312 43.956 93.225L49.896 88.44C50.0859 88.2877 50.3286 88.2171 50.5705 88.2437C50.8125 88.2703 51.034 88.392 51.1863 88.5819C51.3386 88.7718 51.4092 89.0145 51.3826 89.2564C51.356 89.4984 51.2343 89.7199 51.0444 89.8722L45.9954 93.9312L51.0378 97.8912C51.1871 98.0093 51.2959 98.171 51.3492 98.3537C51.4025 98.5365 51.3976 98.7313 51.3353 98.9112C51.2729 99.0911 51.1561 99.2471 51.0011 99.3576C50.8461 99.4681 50.6606 99.5277 50.4702 99.528V99.5544Z" fill="#24285B"/>
<path d="M61.2282 99.5544C61.0895 99.5552 60.9524 99.524 60.8277 99.4634C60.703 99.4027 60.5938 99.3142 60.5088 99.2046C60.3585 99.0137 60.2901 98.771 60.3186 98.5297C60.347 98.2885 60.47 98.0683 60.6606 97.9176L65.703 93.9576L60.654 89.8986C60.4606 89.7463 60.3356 89.5234 60.3065 89.279C60.2774 89.0345 60.3466 88.7885 60.4989 88.5951C60.6512 88.4017 60.8741 88.2767 61.1185 88.2476C61.363 88.2185 61.609 88.2877 61.8024 88.44L67.7424 93.225C67.8493 93.312 67.9356 93.4217 67.9949 93.5461C68.0543 93.6705 68.0852 93.8066 68.0856 93.9444C68.0849 94.0819 68.053 94.2175 67.9925 94.3409C67.9319 94.4644 67.8441 94.5725 67.7358 94.6572L61.7958 99.3564C61.6358 99.4872 61.4348 99.5573 61.2282 99.5544Z" fill="#24285B"/>
<path d="M53.3544 99.5544C53.2228 99.5535 53.0927 99.5266 52.9716 99.4752C52.7509 99.3719 52.58 99.1857 52.4959 98.9571C52.4119 98.7284 52.4215 98.4758 52.5228 98.2542L56.8524 88.7766C56.9002 88.6639 56.9701 88.5619 57.058 88.4766C57.1458 88.3913 57.2499 88.3245 57.3639 88.28C57.478 88.2356 57.5999 88.2144 57.7222 88.2178C57.8446 88.2212 57.9651 88.249 58.0766 88.2997C58.188 88.3503 58.2882 88.4228 58.3713 88.5128C58.4543 88.6028 58.5184 88.7085 58.56 88.8237C58.6015 88.9389 58.6196 89.0612 58.6131 89.1835C58.6066 89.3057 58.5757 89.4255 58.5222 89.5356L54.1926 99C54.1213 99.1634 54.0042 99.3027 53.8555 99.4011C53.7067 99.4995 53.5327 99.5527 53.3544 99.5544Z" fill="#24285B"/>
<path d="M75.537 44.8272C77.5892 44.8272 79.2528 43.1636 79.2528 41.1114C79.2528 39.0592 77.5892 37.3956 75.537 37.3956C73.4848 37.3956 71.8212 39.0592 71.8212 41.1114C71.8212 43.1636 73.4848 44.8272 75.537 44.8272Z" fill="white"/>
<path opacity="0.56" d="M83.4504 49.5066H68.0922V52.5492H83.4504V49.5066Z" fill="white"/>
<path opacity="0.19" d="M83.4504 56.3904H68.0922V59.433H83.4504V56.3904Z" fill="white"/>
<path opacity="0.46" d="M136.376 32.4786H97.9968V55.2156H136.376V32.4786Z" fill="white"/>
<path d="M136.376 61.71H97.9968V69.2934H136.376V61.71Z" fill="white"/>
<path d="M136.376 61.71H125.235V69.2934H136.376V61.71Z" fill="#C9C9C9"/>
<path d="M220.988 101.178H206.138V103.871H220.988V101.178Z" fill="#C9C9C9"/>
<path opacity="0.45" d="M220.988 106.181H206.138V108.874H220.988V106.181Z" fill="#C9C9C9"/>
</svg>
